# Blender v2.82 (sub 7) OBJ File: 'buildingPack.blend'
# www.blender.org
mtllib Cardboard.030.mtl
o Cardboard.030_Cube.039
v 0.026170 -0.166094 -0.227251
v -0.026170 -0.166094 -0.227251
v -0.026170 -0.166094 0.227251
v 0.026170 -0.166094 0.227251
v -0.028359 0.070751 0.227251
v 0.028359 0.070751 0.227251
v 0.028359 0.070751 -0.227251
v -0.028359 0.070751 -0.227251
v 0.028359 0.024922 0.238979
v -0.028359 0.024922 0.238979
v -0.028359 0.024922 -0.238979
v 0.028359 0.024922 -0.238979
v 0.028359 -0.050990 0.227251
v -0.028359 -0.050990 0.227251
v -0.028359 -0.050990 -0.227251
v 0.028359 -0.050990 -0.227251
v -0.215888 -0.227251 0.215888
v -0.215888 -0.215888 0.227251
v -0.227251 -0.215888 0.215888
v -0.215888 -0.227251 -0.215888
v -0.227251 -0.215888 -0.215888
v -0.215888 -0.215888 -0.227251
v 0.215888 -0.227251 0.215888
v 0.227251 -0.215888 0.215888
v 0.215888 -0.215888 0.227251
v 0.215888 -0.215888 -0.227251
v 0.227251 -0.215888 -0.215888
v 0.215888 -0.227251 -0.215888
v -0.227251 0.070751 0.215888
v -0.215888 0.070751 0.227251
v -0.215888 0.070751 -0.227251
v -0.227251 0.070751 -0.215888
v 0.227251 0.070751 -0.215888
v 0.215888 0.070751 -0.227251
v 0.215888 0.070751 0.227251
v 0.227251 0.070751 0.215888
v -0.227617 0.112626 0.238979
v -0.227617 0.123989 0.227617
v -0.238979 0.112626 0.227617
v -0.227617 0.123989 -0.227617
v -0.227617 0.112626 -0.238979
v -0.238979 0.112626 -0.227617
v 0.227617 0.123989 0.227617
v 0.227617 0.112626 0.238979
v 0.238979 0.112626 0.227617
v 0.227617 0.123989 -0.227617
v 0.238979 0.112626 -0.227617
v 0.227617 0.112626 -0.238979
v -0.227617 0.024922 0.238979
v -0.238979 0.024922 0.227617
v -0.238979 0.024922 -0.227617
v -0.227617 0.024922 -0.238979
v 0.227617 0.024922 -0.238979
v 0.238979 0.024922 -0.227617
v 0.238979 0.024922 0.227617
v 0.227617 0.024922 0.238979
v -0.227251 -0.166094 -0.215888
v -0.215888 -0.166094 -0.227251
v 0.215888 -0.166094 -0.227251
v 0.227251 -0.166094 -0.215888
v 0.227251 -0.166094 0.215888
v 0.215888 -0.166094 0.227251
v -0.215888 -0.166094 0.227251
v -0.227251 -0.166094 0.215888
v 0.026170 -0.215888 -0.227251
v 0.026170 -0.227251 -0.215888
v -0.026170 -0.227251 -0.215888
v -0.026170 -0.215888 -0.227251
v -0.026170 -0.215888 0.227251
v -0.026170 -0.227251 0.215888
v 0.026170 -0.227251 0.215888
v 0.026170 -0.215888 0.227251
v -0.227251 -0.050990 0.215888
v -0.215888 -0.050990 0.227251
v -0.227251 -0.050990 -0.215888
v -0.215888 -0.050990 -0.227251
v 0.215888 -0.050990 -0.227251
v 0.227251 -0.050990 -0.215888
v 0.227251 -0.050990 0.215888
v 0.215888 -0.050990 0.227251
v 0.028359 0.123989 -0.227617
v 0.028359 0.112626 -0.238979
v -0.028359 0.112626 -0.238979
v -0.028359 0.123989 -0.227617
v -0.028359 0.123989 0.227617
v -0.028359 0.112626 0.238979
v 0.028359 0.112626 0.238979
v 0.028359 0.123989 0.227617
v 0.026170 -0.166094 -0.215888
v -0.026170 -0.166094 -0.215888
v -0.026170 -0.166094 0.215888
v 0.026170 -0.166094 0.215888
v -0.028359 0.070751 0.215888
v 0.028359 0.070751 0.215888
v 0.028359 0.070751 -0.215888
v -0.028359 0.070751 -0.215888
v 0.028359 0.024922 0.227617
v -0.028359 0.024922 0.227617
v -0.028359 0.024922 -0.227617
v 0.028359 0.024922 -0.227617
v 0.028359 -0.050990 0.215888
v -0.028359 -0.050990 0.215888
v -0.028359 -0.050990 -0.215888
v 0.028359 -0.050990 -0.215888
v -0.212007 -0.217302 0.212007
v -0.212007 -0.212007 0.217302
v -0.217302 -0.212007 0.212007
v -0.212007 -0.217302 -0.212007
v -0.217302 -0.212007 -0.212007
v -0.212007 -0.212007 -0.217302
v 0.212007 -0.217302 0.212007
v 0.217302 -0.212007 0.212007
v 0.212007 -0.212007 0.217302
v 0.212007 -0.212007 -0.217302
v 0.217302 -0.212007 -0.212007
v 0.212007 -0.217302 -0.212007
v -0.216754 0.070751 0.211540
v -0.211540 0.070751 0.216754
v -0.211540 0.070751 -0.216754
v -0.216754 0.070751 -0.211540
v 0.216754 0.070751 -0.211540
v 0.211540 0.070751 -0.216754
v 0.211540 0.070751 0.216754
v 0.216754 0.070751 0.211540
v -0.223736 0.108745 0.229031
v -0.223736 0.114040 0.223736
v -0.229031 0.108745 0.223736
v -0.223736 0.114040 -0.223736
v -0.223736 0.108745 -0.229031
v -0.229031 0.108745 -0.223736
v 0.223736 0.114040 0.223736
v 0.223736 0.108745 0.229031
v 0.229031 0.108745 0.223736
v 0.223736 0.114040 -0.223736
v 0.229031 0.108745 -0.223736
v 0.223736 0.108745 -0.229031
v -0.223269 0.024922 0.228482
v -0.228482 0.024922 0.223269
v -0.228482 0.024922 -0.223269
v -0.223269 0.024922 -0.228482
v 0.223269 0.024922 -0.228482
v 0.228482 0.024922 -0.223269
v 0.228482 0.024922 0.223269
v 0.223269 0.024922 0.228482
v -0.216754 -0.166094 -0.211540
v -0.211540 -0.166094 -0.216754
v 0.211540 -0.166094 -0.216754
v 0.216754 -0.166094 -0.211540
v 0.216754 -0.166094 0.211540
v 0.211540 -0.166094 0.216754
v -0.211540 -0.166094 0.216754
v -0.216754 -0.166094 0.211540
v 0.026170 -0.211540 -0.216754
v 0.026170 -0.216754 -0.211540
v -0.026170 -0.216754 -0.211540
v -0.026170 -0.211540 -0.216754
v -0.026170 -0.211540 0.216754
v -0.026170 -0.216754 0.211540
v 0.026170 -0.216754 0.211540
v 0.026170 -0.211540 0.216754
v -0.216754 -0.050990 0.211540
v -0.211540 -0.050990 0.216754
v -0.216754 -0.050990 -0.211540
v -0.211540 -0.050990 -0.216754
v 0.211540 -0.050990 -0.216754
v 0.216754 -0.050990 -0.211540
v 0.216754 -0.050990 0.211540
v 0.211540 -0.050990 0.216754
v 0.028359 0.113492 -0.223269
v 0.028359 0.108278 -0.228482
v -0.028359 0.108278 -0.228482
v -0.028359 0.113492 -0.223269
v -0.028359 0.113492 0.223269
v -0.028359 0.108278 0.228482
v 0.028359 0.108278 0.228482
v 0.028359 0.113492 0.223269
vt 0.550219 0.993713
vt 0.553834 0.889957
vt 0.575000 0.889957
vt 0.575000 0.993713
vt 0.550219 0.493713
vt 0.553834 0.389957
vt 0.575000 0.389957
vt 0.575000 0.493713
vt 0.550219 0.756287
vt 0.575000 0.756287
vt 0.575000 0.860043
vt 0.553834 0.860043
vt 0.550219 0.256287
vt 0.575000 0.256287
vt 0.575000 0.360043
vt 0.553834 0.360043
vt 0.764223 0.505943
vt 0.869024 0.505943
vt 0.869024 0.744057
vt 0.764223 0.744057
vt 0.575000 0.255976
vt 0.619265 0.255976
vt 0.619265 0.360777
vt 0.575000 0.360777
vt 0.575000 0.755976
vt 0.619265 0.755976
vt 0.619265 0.860777
vt 0.575000 0.860777
vt 0.575000 0.389223
vt 0.619265 0.389223
vt 0.619265 0.494024
vt 0.575000 0.494024
vt 0.575000 0.005943
vt 0.619265 0.005943
vt 0.619265 0.244057
vt 0.575000 0.244057
vt 0.550000 0.506250
vt 0.575000 0.506250
vt 0.575000 0.743750
vt 0.550000 0.743750
vt 0.575000 0.889223
vt 0.619265 0.889223
vt 0.619265 0.994024
vt 0.575000 0.994024
vt 0.270136 0.506250
vt 0.369074 0.506250
vt 0.369074 0.743750
vt 0.270136 0.743750
vt 0.393579 0.255926
vt 0.475000 0.255926
vt 0.475000 0.354864
vt 0.393579 0.354864
vt 0.393579 0.395136
vt 0.475000 0.395136
vt 0.475000 0.494074
vt 0.393579 0.494074
vt 0.393579 0.895136
vt 0.475000 0.895136
vt 0.475000 0.994074
vt 0.393579 0.994074
vt 0.393579 0.006250
vt 0.475000 0.006250
vt 0.475000 0.243750
vt 0.393579 0.243750
vt 0.393579 0.755926
vt 0.475000 0.755926
vt 0.475000 0.854864
vt 0.393579 0.854864
vt 0.575000 0.505943
vt 0.619265 0.505943
vt 0.619265 0.744057
vt 0.575000 0.744057
vt 0.393579 0.506250
vt 0.475000 0.506250
vt 0.475000 0.743750
vt 0.393579 0.743750
vt 0.630976 0.505943
vt 0.735777 0.505943
vt 0.735777 0.744057
vt 0.630976 0.744057
vt 0.475000 0.006250
vt 0.550000 0.006250
vt 0.550000 0.243750
vt 0.550000 0.006250
vt 0.575000 0.006250
vt 0.575000 0.243750
vt 0.130926 0.743750
vt 0.130926 0.750000
vt 0.125000 0.743750
vt 0.130926 0.506250
vt 0.125000 0.506250
vt 0.130926 0.500000
vt 0.375000 0.743750
vt 0.369074 0.750000
vt 0.393579 0.500000
vt 0.375000 0.494074
vt 0.625000 0.994024
vt 0.619265 1.000000
vt 0.869024 0.500000
vt 0.875000 0.505943
vt 0.630976 0.750000
vt 0.625000 0.744057
vt 0.625000 0.505943
vt 0.630976 0.500000
vt 0.575000 1.000000
vt 0.550000 1.000000
vt 0.575000 1.000000
vt 0.875000 0.744057
vt 0.475000 1.000000
vt 0.393579 1.000000
vt 0.229864 0.506250
vt 0.229864 0.500000
vt 0.375000 0.395136
vt 0.375000 0.854864
vt 0.375000 0.755926
vt 0.375000 0.994074
vt 0.375000 0.895136
vt 0.625000 0.389223
vt 0.625000 0.494024
vt 0.625000 0.755976
vt 0.625000 0.860777
vt 0.764223 0.500000
vt 0.625000 0.889223
vt 0.229864 0.743750
vt 0.550219 0.993713
vt 0.575000 0.993713
vt 0.575000 0.889957
vt 0.553834 0.889957
vt 0.550219 0.493713
vt 0.575000 0.493713
vt 0.575000 0.389957
vt 0.553834 0.389957
vt 0.550219 0.756287
vt 0.553834 0.860043
vt 0.575000 0.860043
vt 0.575000 0.756287
vt 0.550219 0.256287
vt 0.553834 0.360043
vt 0.575000 0.360043
vt 0.575000 0.256287
vt 0.764223 0.505943
vt 0.764223 0.744057
vt 0.869024 0.744057
vt 0.869024 0.505943
vt 0.575000 0.255976
vt 0.575000 0.360777
vt 0.619265 0.360777
vt 0.619265 0.255976
vt 0.575000 0.755976
vt 0.575000 0.860777
vt 0.619265 0.860777
vt 0.619265 0.755976
vt 0.575000 0.389223
vt 0.575000 0.494024
vt 0.619265 0.494024
vt 0.619265 0.389223
vt 0.575000 0.005943
vt 0.575000 0.244057
vt 0.619265 0.244057
vt 0.619265 0.005943
vt 0.550000 0.506250
vt 0.550000 0.743750
vt 0.575000 0.743750
vt 0.575000 0.506250
vt 0.575000 0.889223
vt 0.575000 0.994024
vt 0.619265 0.994024
vt 0.619265 0.889223
vt 0.270136 0.506250
vt 0.270136 0.743750
vt 0.369074 0.743750
vt 0.369074 0.506250
vt 0.393579 0.255926
vt 0.393579 0.354864
vt 0.475000 0.354864
vt 0.475000 0.255926
vt 0.393579 0.395136
vt 0.393579 0.494074
vt 0.475000 0.494074
vt 0.475000 0.395136
vt 0.393579 0.895136
vt 0.393579 0.994074
vt 0.475000 0.994074
vt 0.475000 0.895136
vt 0.393579 0.006250
vt 0.393579 0.243750
vt 0.475000 0.243750
vt 0.475000 0.006250
vt 0.393579 0.755926
vt 0.393579 0.854864
vt 0.475000 0.854864
vt 0.475000 0.755926
vt 0.575000 0.505943
vt 0.575000 0.744057
vt 0.619265 0.744057
vt 0.619265 0.505943
vt 0.393579 0.506250
vt 0.393579 0.743750
vt 0.475000 0.743750
vt 0.475000 0.506250
vt 0.630976 0.505943
vt 0.630976 0.744057
vt 0.735777 0.744057
vt 0.735777 0.505943
vt 0.475000 0.006250
vt 0.550000 0.243750
vt 0.550000 0.006250
vt 0.550000 0.006250
vt 0.575000 0.243750
vt 0.575000 0.006250
vt 0.130926 0.743750
vt 0.125000 0.743750
vt 0.130926 0.750000
vt 0.130926 0.506250
vt 0.130926 0.500000
vt 0.125000 0.506250
vt 0.369074 0.750000
vt 0.375000 0.743750
vt 0.375000 0.494074
vt 0.393579 0.500000
vt 0.619265 1.000000
vt 0.625000 0.994024
vt 0.875000 0.505943
vt 0.869024 0.500000
vt 0.625000 0.744057
vt 0.630976 0.750000
vt 0.630976 0.500000
vt 0.625000 0.505943
vt 0.550000 1.000000
vt 0.575000 1.000000
vt 0.575000 1.000000
vt 0.875000 0.744057
vt 0.393579 1.000000
vt 0.475000 1.000000
vt 0.229864 0.506250
vt 0.229864 0.500000
vt 0.375000 0.395136
vt 0.375000 0.755926
vt 0.375000 0.854864
vt 0.375000 0.895136
vt 0.375000 0.994074
vt 0.625000 0.494024
vt 0.625000 0.389223
vt 0.625000 0.860777
vt 0.625000 0.755976
vt 0.764223 0.500000
vt 0.625000 0.889223
vt 0.229864 0.743750
vt 0.270136 0.500000
vt 0.270136 0.750000
vt 0.229864 0.750000
vt 0.625000 0.360777
vt 0.270136 0.500000
vt 0.229864 0.750000
vt 0.270136 0.750000
vt 0.625000 0.360777
vn -0.0000 0.0000 1.0000
vn 0.0000 0.0000 -1.0000
vn 0.0000 1.0000 0.0000
vn -1.0000 0.0000 0.0000
vn 1.0000 0.0000 0.0000
vn 0.0000 -1.0000 0.0000
vn -0.5774 -0.5774 0.5774
vn -0.5774 -0.5774 -0.5774
vn 0.5774 -0.5774 0.5774
vn 0.5774 -0.5774 -0.5774
vn -0.5774 0.5774 0.5773
vn -0.5774 0.5774 -0.5773
vn 0.5774 0.5774 0.5773
vn 0.5774 0.5774 -0.5773
vn -0.7071 -0.7071 0.0000
vn -0.7071 0.0000 -0.7071
vn 0.7071 0.0000 -0.7071
vn 0.7071 -0.7071 0.0000
vn 0.7071 0.0000 0.7071
vn -0.7071 0.0000 0.7071
vn -0.7071 0.7071 0.0000
vn 0.7071 0.7071 0.0000
vn 0.0000 -0.7071 -0.7071
vn 0.0000 -0.7071 0.7071
vn 0.0000 0.7071 -0.7071
vn 0.0000 0.7071 0.7071
vn -0.0047 0.0000 -1.0000
vn 0.0047 0.0000 1.0000
vn 0.0047 0.0000 -1.0000
vn -0.0047 0.0000 1.0000
vn -0.0028 -1.0000 0.0000
vn -0.0036 0.0084 1.0000
vn 0.0036 0.0084 -1.0000
vn 0.0036 0.0084 1.0000
vn 1.0000 0.0065 0.0000
vn -0.0036 0.0084 -1.0000
vn 0.0030 1.0000 0.0000
vn -0.0038 -0.0155 0.9999
vn 0.0038 -0.0155 0.9999
vn -0.0038 -0.0155 -0.9999
vn 0.9999 -0.0119 0.0000
vn 0.0038 -0.0155 -0.9999
vn -1.0000 0.0065 0.0000
vn -0.9999 -0.0119 0.0000
vn 0.0028 -1.0000 0.0000
vn 0.5774 0.5774 -0.5774
vn 0.5774 0.5774 0.5774
vn -0.5774 0.5774 -0.5774
vn -0.5774 0.5774 0.5774
vn 0.5773 -0.5774 -0.5774
vn 0.5773 -0.5774 0.5774
vn -0.5773 -0.5774 -0.5774
vn -0.5773 -0.5774 0.5774
vn 0.7070 -0.0156 0.7070
vn -0.7070 -0.0156 0.7070
vn -0.7070 -0.0156 -0.7070
vn 0.7071 0.0086 -0.7071
vn 0.7071 0.0086 0.7071
vn -0.7071 0.0086 0.7071
vn -0.7071 0.0086 -0.7071
vn 0.7070 -0.0156 -0.7070
vn -0.0039 0.7071 0.7071
vn 0.0039 0.7071 0.7071
vn 0.0039 0.7071 -0.7071
vn -0.0039 0.7071 -0.7071
vn 0.0037 -0.7071 0.7071
vn 0.0037 -0.7071 -0.7071
vn -0.0037 -0.7071 0.7071
vn -0.0037 -0.7071 -0.7071
vn -0.0030 1.0000 0.0000
vn 0.0000 0.0104 0.9999
vn 0.0000 -0.0190 -0.9998
vn 0.0000 0.0104 -0.9999
vn 0.0000 -0.0190 0.9998
usemtl Cardboard
s off
f 74/1/1 14/2/1 5/3/1 30/4/1
f 77/5/2 16/6/2 7/7/2 34/8/2
f 80/9/1 35/10/1 6/11/1 13/12/1
f 76/13/2 31/14/2 8/15/2 15/16/2
f 84/17/3 40/18/3 38/19/3 85/20/3
f 52/21/2 41/22/2 83/23/2 11/24/2
f 56/25/1 44/26/1 87/27/1 9/28/1
f 12/29/2 82/30/2 48/31/2 53/32/2
f 50/33/4 39/34/4 42/35/4 51/36/4
f 78/37/5 33/38/5 36/39/5 79/40/5
f 10/41/1 86/42/1 37/43/1 49/44/1
f 66/45/6 28/46/6 23/47/6 71/48/6
f 22/49/2 58/50/2 2/51/2 68/52/2
f 65/53/2 1/54/2 59/55/2 26/56/2
f 69/57/1 3/58/1 63/59/1 18/60/1
f 19/61/4 64/62/4 57/63/4 21/64/4
f 25/65/1 62/66/1 4/67/1 72/68/1
f 54/69/5 47/70/5 45/71/5 55/72/5
f 27/73/5 60/74/5 61/75/5 24/76/5
f 13/12/1 4/67/1 62/66/1 80/9/1
f 2/51/2 58/50/2 76/13/2 15/16/2
f 46/77/3 81/78/3 88/79/3 43/80/3
f 64/81/4 73/82/4 75/83/4 57/63/4
f 63/59/1 3/58/1 14/2/1 74/1/1
f 1/54/2 2/51/2 15/16/2 16/6/2
f 60/74/5 78/37/5 79/40/5 61/75/5
f 59/55/2 1/54/2 16/6/2 77/5/2
f 73/84/4 29/85/4 32/86/4 75/83/4
f 3/58/1 4/67/1 13/12/1 14/2/1
f 17/87/7 18/88/7 19/89/7
f 20/90/8 21/91/8 22/92/8
f 23/47/9 24/93/9 25/94/9
f 26/56/10 27/95/10 28/96/10
f 37/43/11 38/97/11 39/98/11
f 40/18/12 41/99/12 42/100/12
f 43/80/13 44/101/13 45/102/13
f 46/77/14 47/103/14 48/104/14
f 20/90/15 17/87/15 19/89/15 21/91/15
f 58/50/16 22/49/16 21/64/16 57/63/16
f 60/74/17 27/73/17 26/56/17 59/55/17
f 23/47/18 28/46/18 27/73/18 24/76/18
f 62/66/19 25/65/19 24/76/19 61/75/19
f 74/1/20 30/4/20 29/105/20 73/106/20
f 49/44/20 37/43/20 39/98/20 50/107/20
f 38/19/21 40/18/21 42/100/21 39/108/21
f 46/77/22 43/80/22 45/71/22 47/70/22
f 41/22/16 52/21/16 51/36/16 42/35/16
f 47/70/17 54/69/17 53/32/17 48/31/17
f 44/26/19 56/25/19 55/72/19 45/71/19
f 18/60/20 63/59/20 64/109/20 19/110/20
f 67/111/23 20/90/23 22/92/23 68/112/23
f 65/53/23 26/56/23 28/96/23 66/113/23
f 25/65/24 72/68/24 71/114/24 23/115/24
f 69/57/24 18/60/24 17/116/24 70/117/24
f 76/13/16 58/50/16 57/63/16 75/83/16
f 78/37/17 60/74/17 59/55/17 77/5/17
f 80/9/19 62/66/19 61/75/19 79/40/19
f 63/59/20 74/1/20 73/106/20 64/109/20
f 31/14/16 76/13/16 75/83/16 32/86/16
f 33/38/17 78/37/17 77/5/17 34/8/17
f 35/10/19 80/9/19 79/40/19 36/39/19
f 48/31/25 82/30/25 81/118/25 46/119/25
f 87/27/26 44/26/26 43/120/26 88/121/26
f 40/18/25 84/17/25 83/122/25 41/99/25
f 37/43/26 86/42/26 85/123/26 38/97/26
f 20/90/6 67/111/6 70/124/6 17/87/6
f 162/125/27 118/126/27 93/127/27 102/128/27
f 165/129/28 122/130/28 95/131/28 104/132/28
f 168/133/29 101/134/29 94/135/29 123/136/29
f 164/137/30 103/138/30 96/139/30 119/140/30
f 172/141/31 173/142/31 126/143/31 128/144/31
f 140/145/32 99/146/32 171/147/32 129/148/32
f 144/149/33 97/150/33 175/151/33 132/152/33
f 100/153/34 141/154/34 136/155/34 170/156/34
f 138/157/35 139/158/35 130/159/35 127/160/35
f 166/161/4 167/162/4 124/163/4 121/164/4
f 98/165/36 137/166/36 125/167/36 174/168/36
f 154/169/37 159/170/37 111/171/37 116/172/37
f 110/173/38 156/174/38 90/175/38 146/176/38
f 153/177/39 114/178/39 147/179/39 89/180/39
f 157/181/40 106/182/40 151/183/40 91/184/40
f 107/185/41 109/186/41 145/187/41 152/188/41
f 113/189/42 160/190/42 92/191/42 150/192/42
f 142/193/43 143/194/43 133/195/43 135/196/43
f 115/197/44 112/198/44 149/199/44 148/200/44
f 101/134/29 168/133/29 150/192/29 92/191/29
f 90/175/30 103/138/30 164/137/30 146/176/30
f 134/201/45 131/202/45 176/203/45 169/204/45
f 152/205/5 145/187/5 163/206/5 161/207/5
f 151/183/27 162/125/27 102/128/27 91/184/27
f 89/180/1 104/132/1 103/138/1 90/175/1
f 148/200/4 149/199/4 167/162/4 166/161/4
f 147/179/28 165/129/28 104/132/28 89/180/28
f 161/208/5 163/206/5 120/209/5 117/210/5
f 91/184/2 102/128/2 101/134/2 92/191/2
f 105/211/46 107/212/46 106/213/46
f 108/214/47 110/215/47 109/216/47
f 111/171/48 113/217/48 112/218/48
f 114/178/49 116/219/49 115/220/49
f 125/167/50 127/221/50 126/222/50
f 128/144/51 130/223/51 129/224/51
f 131/202/52 133/225/52 132/226/52
f 134/201/53 136/227/53 135/228/53
f 108/214/22 109/216/22 107/212/22 105/211/22
f 146/176/54 145/187/54 109/186/54 110/173/54
f 148/200/55 147/179/55 114/178/55 115/197/55
f 111/171/21 112/198/21 115/197/21 116/172/21
f 150/192/56 149/199/56 112/198/56 113/189/56
f 162/125/17 161/229/17 117/230/17 118/126/17
f 137/166/57 138/231/57 127/221/57 125/167/57
f 126/143/18 127/232/18 130/223/18 128/144/18
f 134/201/15 135/196/15 133/195/15 131/202/15
f 129/148/58 130/159/58 139/158/58 140/145/58
f 135/196/59 136/155/59 141/154/59 142/193/59
f 132/152/60 133/195/60 143/194/60 144/149/60
f 106/182/61 107/233/61 152/234/61 151/183/61
f 155/235/62 156/236/62 110/215/62 108/214/62
f 153/177/63 154/237/63 116/219/63 114/178/63
f 113/189/64 111/238/64 159/239/64 160/190/64
f 157/181/65 158/240/65 105/241/65 106/182/65
f 164/137/19 163/206/19 145/187/19 146/176/19
f 166/161/20 165/129/20 147/179/20 148/200/20
f 168/133/16 167/162/16 149/199/16 150/192/16
f 151/183/17 152/234/17 161/229/17 162/125/17
f 119/140/19 120/209/19 163/206/19 164/137/19
f 121/164/20 122/130/20 165/129/20 166/161/20
f 123/136/16 124/163/16 167/162/16 168/133/16
f 136/155/66 134/242/66 169/243/66 170/156/66
f 175/151/67 176/244/67 131/245/67 132/152/67
f 128/144/68 129/224/68 171/246/68 172/141/68
f 125/167/69 126/222/69 173/247/69 174/168/69
f 108/214/70 105/211/70 158/248/70 155/235/70
f 29/105/3 30/4/3 118/126/3 117/230/3
f 49/44/6 50/107/6 138/231/6 137/166/6
f 51/36/6 52/21/6 140/145/6 139/158/6
f 53/32/6 54/69/6 142/193/6 141/154/6
f 55/72/6 56/25/6 144/149/6 143/194/6
f 31/14/3 32/86/3 120/209/3 119/140/3
f 33/38/3 34/8/3 122/130/3 121/164/3
f 35/10/3 36/39/3 124/163/3 123/136/3
f 30/4/3 5/3/3 93/127/3 118/126/3
f 32/86/3 29/85/3 117/210/3 120/209/3
f 8/15/3 31/14/3 119/140/3 96/139/3
f 36/39/3 33/38/3 121/164/3 124/163/3
f 34/8/3 7/7/3 95/131/3 122/130/3
f 6/11/3 35/10/3 123/136/3 94/135/3
f 10/41/6 49/44/6 137/166/6 98/165/6
f 50/33/6 51/36/6 139/158/6 138/157/6
f 52/21/6 11/24/6 99/146/6 140/145/6
f 54/69/6 55/72/6 143/194/6 142/193/6
f 56/25/6 9/28/6 97/150/6 144/149/6
f 12/29/6 53/32/6 141/154/6 100/153/6
usemtl CardboardTape
f 66/45/6 71/48/6 70/124/6 67/111/6
f 82/30/2 12/29/2 11/24/2 83/23/2
f 3/58/1 69/57/1 72/68/1 4/67/1
f 86/42/1 10/41/1 9/28/1 87/27/1
f 84/17/3 85/20/3 88/79/3 81/78/3
f 5/3/1 14/2/1 13/12/1 6/11/1
f 7/7/2 16/6/2 15/16/2 8/15/2
f 1/54/2 65/53/2 68/52/2 2/51/2
f 66/45/23 67/111/23 68/112/23 65/249/23
f 70/124/24 71/48/24 72/250/24 69/251/24
f 82/30/25 83/23/25 84/252/25 81/118/25
f 86/42/26 87/27/26 88/121/26 85/123/26
f 154/169/3 155/235/3 158/248/3 159/170/3
f 170/156/71 171/147/71 99/146/71 100/153/71
f 91/184/72 92/191/72 160/190/72 157/181/72
f 174/168/73 175/151/73 97/150/73 98/165/73
f 172/141/6 169/204/6 176/203/6 173/142/6
f 93/127/2 94/135/2 101/134/2 102/128/2
f 95/131/1 96/139/1 103/138/1 104/132/1
f 89/180/74 90/175/74 156/174/74 153/177/74
f 154/169/26 153/253/26 156/236/26 155/235/26
f 158/248/25 157/254/25 160/255/25 159/170/25
f 170/156/24 169/243/24 172/256/24 171/147/24
f 174/168/23 173/247/23 176/244/23 175/151/23
f 9/28/6 10/41/6 98/165/6 97/150/6
f 11/24/6 12/29/6 100/153/6 99/146/6
f 5/3/3 6/11/3 94/135/3 93/127/3
f 7/7/3 8/15/3 96/139/3 95/131/3
o RedSticker.012_Plane.034
v -0.227933 -0.103793 0.000000
v -0.227933 -0.103793 0.000000
v -0.239661 0.024921 0.000000
v -0.239661 0.024920 0.000000
v -0.239656 0.024842 0.000000
v -0.239643 0.024767 0.000000
v -0.239657 0.024850 0.000000
v -0.239649 0.024793 0.000000
v -0.239661 0.024894 0.000000
v -0.239661 0.024907 0.000000
v -0.227933 -0.093076 0.000000
v -0.227933 -0.093076 0.000000
v -0.239639 0.024749 0.000000
v -0.239654 0.024825 0.000000
vt 0.160644 0.043323
vt 0.032327 0.043323
vt 0.032328 0.737964
vt 0.160644 0.737964
vt 0.458097 0.043323
vt 0.218226 0.043322
vt 0.218226 0.737964
vt 0.458097 0.737964
vt 0.184647 0.000125
vt 0.184647 0.781161
vt 0.000125 0.781161
vt 0.000125 0.000125
vt 0.499875 0.000125
vt 0.499875 0.781161
vn 0.0000 0.0000 -1.0000
vn 0.0000 0.0000 1.0000
usemtl RedSticker
s off
f 183/257/75 186/258/75 185/259/75 184/260/75
f 187/261/75 190/262/75 189/263/75 188/264/75
f 181/265/76 183/257/76 184/260/76 182/266/76
f 182/266/75 184/260/75 185/259/75 180/267/75
f 180/267/75 185/259/75 186/258/75 179/268/75
f 179/268/76 186/258/76 183/257/76 181/265/76
f 177/269/76 187/261/76 188/264/76 178/270/76
f 178/270/76 188/264/76 189/263/76 182/266/76
f 182/266/76 189/263/76 190/262/76 181/265/76
f 181/265/75 190/262/75 187/261/75 177/269/75
o codeBArre.015_codeBArre.019
v -0.239652 0.024811 0.039307
v -0.239633 0.024728 0.039307
v -0.239652 0.024811 -0.039307
v -0.239633 0.024728 -0.039307
vt 0.000000 0.000000
vt 1.000000 0.000000
vt 1.000000 1.000000
vt 0.000000 1.000000
vn 0.9744 0.2246 0.0000
usemtl codeBArre
s off
f 191/271/77 192/272/77 194/273/77 193/274/77
