# Blender v2.82 (sub 7) OBJ File: 'buildingPack.blend'
# www.blender.org
mtllib Cardboard.027.mtl
o Cardboard.027_Cube.012
v 0.034715 0.182694 -0.190273
v 0.034715 0.000000 -0.190273
v -0.034715 0.182694 -0.190273
v -0.034715 0.000000 -0.190273
v 0.034715 0.182694 0.190273
v 0.034715 0.000000 0.190273
v -0.034715 0.182694 0.190273
v -0.034715 0.000000 0.190273
v 0.182662 0.189262 0.189485
v 0.182662 0.189263 -0.189485
v 0.034715 0.189263 -0.189485
v 0.182662 0.306795 -0.331892
v 0.034715 0.189263 0.189485
v 0.034715 0.306795 -0.331892
v 0.182662 0.306795 0.331892
v 0.034715 0.306795 0.331892
v 0.196411 0.183260 -0.177826
v -0.182662 0.189263 -0.189485
v 0.000000 -0.190273 -0.167040
v 0.196411 0.183260 0.177826
v 0.190259 -0.000131 -0.167479
v -0.182662 0.189263 0.189485
v 0.302825 0.256114 -0.169057
v 0.000000 -0.190273 0.167040
v -0.034715 0.189263 -0.189485
v 0.190259 -0.000131 0.167479
v 0.302825 0.256114 0.169057
v -0.034715 0.189263 0.189485
v -0.182662 0.306795 -0.331892
v -0.034715 0.306795 -0.331892
v -0.182662 0.306795 0.331892
v -0.196411 0.183260 -0.177826
v -0.034715 0.306795 0.331892
v -0.190259 -0.000131 -0.167479
v -0.196411 0.183260 0.177826
v -0.302825 0.256114 -0.169057
v -0.190259 -0.000131 0.167479
v -0.302825 0.256114 0.169057
v -0.181457 -0.181457 -0.189326
v -0.181457 -0.189326 -0.181457
v -0.189326 -0.181457 -0.181457
v -0.180284 0.182367 -0.190132
v -0.191507 0.183331 -0.185009
v -0.183913 0.185279 -0.190043
v 0.189326 -0.181457 -0.181457
v 0.181457 -0.189326 -0.181457
v 0.181457 -0.181457 -0.189326
v 0.191507 0.183331 -0.185009
v 0.180284 0.182367 -0.190132
v 0.183913 0.185279 -0.190043
v 0.000000 -0.181769 -0.189694
v 0.000000 -0.189694 -0.181769
v 0.181309 -0.000015 -0.189867
v 0.189282 -0.000083 -0.182612
v -0.181309 -0.000015 -0.189867
v -0.189282 -0.000083 -0.182612
v 0.189694 -0.181769 -0.167040
v 0.181769 -0.189694 -0.167040
v -0.181457 -0.181457 0.189326
v -0.189326 -0.181457 0.181457
v -0.181457 -0.189326 0.181457
v -0.191507 0.183331 0.185009
v -0.180284 0.182367 0.190132
v -0.183913 0.185279 0.190043
v 0.189326 -0.181457 0.181457
v 0.181457 -0.181457 0.189326
v 0.181457 -0.189326 0.181457
v -0.181769 -0.189694 -0.167040
v -0.189694 -0.181769 -0.167040
v 0.180284 0.182367 0.190132
v 0.191507 0.183331 0.185009
v 0.183913 0.185279 0.190043
v 0.000000 -0.181769 0.189694
v 0.000000 -0.189694 0.181769
v 0.189282 -0.000083 0.182612
v 0.181309 -0.000015 0.189867
v -0.181309 -0.000015 0.189867
v -0.189282 -0.000083 0.182612
v 0.181769 -0.189694 0.167040
v 0.189694 -0.181769 0.167040
v -0.189694 -0.181769 0.167040
v -0.181769 -0.189694 0.167040
v 0.034715 0.182662 -0.182662
v 0.034715 0.000000 -0.182662
v -0.034715 0.182662 -0.182662
v -0.034715 0.000000 -0.182662
v 0.034715 0.182662 0.182662
v 0.034715 0.000000 0.182662
v -0.034715 0.182662 0.182662
v -0.034715 0.000000 0.182662
v 0.182662 0.192464 0.182580
v 0.182662 0.192464 -0.182580
v 0.034715 0.192464 -0.182580
v 0.182662 0.312645 -0.327024
v 0.034715 0.192464 0.182580
v 0.034715 0.312645 -0.327024
v 0.182662 0.312645 0.327024
v 0.034715 0.312645 0.327024
v 0.189302 0.185916 -0.177250
v -0.182662 0.192464 -0.182580
v 0.189302 0.185916 0.177250
v 0.182662 0.000000 -0.167040
v -0.182662 0.192465 0.182580
v 0.298460 0.262349 -0.169057
v -0.034715 0.192464 -0.182580
v 0.182662 0.000000 0.167040
v 0.298460 0.262349 0.169057
v -0.034715 0.192464 0.182580
v -0.182662 0.312645 -0.327024
v -0.034715 0.312645 -0.327024
v -0.182662 0.312646 0.327024
v -0.189302 0.185916 -0.177250
v -0.034715 0.312645 0.327024
v -0.182662 0.000000 -0.167040
v -0.189302 0.185916 0.177250
v -0.298459 0.262349 -0.169057
v -0.182662 0.000000 0.167040
v -0.298460 0.262349 0.169057
v -0.178857 -0.178857 -0.182662
v -0.178857 -0.182662 -0.178857
v -0.182662 -0.178857 -0.178857
v -0.178857 0.182662 -0.182662
v -0.185612 0.184108 -0.180258
v -0.182662 0.186468 -0.182630
v 0.182662 -0.178857 -0.178857
v 0.178857 -0.182662 -0.178857
v 0.178857 -0.178857 -0.182662
v 0.185612 0.184108 -0.180258
v 0.178857 0.182662 -0.182662
v 0.182662 0.186468 -0.182630
v 0.178857 0.000000 -0.182662
v 0.182662 0.000000 -0.178857
v -0.178857 0.000000 -0.182662
v -0.182662 0.000000 -0.178857
v 0.182662 -0.178857 -0.167040
v 0.178857 -0.182662 -0.167040
v -0.178857 -0.178857 0.182662
v -0.182662 -0.178857 0.178857
v -0.178857 -0.182662 0.178857
v -0.185612 0.184108 0.180258
v -0.178857 0.182662 0.182662
v -0.182662 0.186468 0.182630
v 0.182662 -0.178857 0.178857
v 0.178857 -0.178857 0.182662
v 0.178857 -0.182662 0.178857
v -0.178857 -0.182662 -0.167040
v -0.182662 -0.178857 -0.167040
v 0.178857 0.182662 0.182662
v 0.185612 0.184108 0.180258
v 0.182662 0.186468 0.182630
v 0.182662 0.000000 0.178857
v 0.178857 0.000000 0.182662
v -0.178857 0.000000 0.182662
v -0.182662 0.000000 0.178857
v 0.178857 -0.182662 0.167040
v 0.182662 -0.178857 0.167040
v -0.182662 -0.178857 0.167040
v -0.178857 -0.182662 0.167040
vt 0.625000 0.398756
vt 0.726244 0.500000
vt 0.625000 0.500000
vt 0.625000 0.500000
vt 0.625000 0.497396
vt 0.625000 0.398756
vt 0.625000 0.497396
vt 0.625000 0.500000
vt 0.625000 0.500000
vt 0.726244 0.500000
vt 0.250000 0.500000
vt 0.250000 0.500000
vt 0.372396 0.500000
vt 0.372396 0.500000
vt 0.372396 0.500000
vt 0.372396 0.500000
vt 0.377604 0.500000
vt 0.500000 0.500000
vt 0.500000 0.500000
vt 0.377604 0.500000
vt 0.500000 0.500000
vt 0.500000 0.500000
vt 0.625000 0.500000
vt 0.625000 0.500000
vt 0.500000 0.398756
vt 0.500000 0.497396
vt 0.250000 0.500000
vt 0.372396 0.500000
vt 0.372396 0.500000
vt 0.250000 0.500000
vt 0.500000 0.500000
vt 0.377604 0.500000
vt 0.625000 0.398756
vt 0.726244 0.500000
vt 0.726244 0.500000
vt 0.625000 0.398756
vt 0.377604 0.500000
vt 0.377604 0.500000
vt 0.500000 0.500000
vt 0.625000 0.500000
vt 0.625000 0.500000
vt 0.377604 0.500000
vt 0.500000 0.500000
vt 0.500000 0.500000
vt 0.377604 0.500000
vt 0.500000 0.398756
vt 0.500000 0.497396
vt 0.625000 0.497396
vt 0.625000 0.398756
vt 0.625000 0.500000
vt 0.625000 0.500000
vt 0.625000 0.500000
vt 0.625000 0.625000
vt 0.726244 0.625000
vt 0.726244 0.500000
vt 0.500000 0.398756
vt 0.500000 0.497396
vt 0.726244 0.625000
vt 0.625000 0.625000
vt 0.625000 0.625000
vt 0.726244 0.625000
vt 0.377604 0.500000
vt 0.500000 0.398756
vt 0.625000 0.398756
vt 0.625000 0.497396
vt 0.500000 0.497396
vt 0.372396 0.500000
vt 0.372396 0.500000
vt 0.726244 0.500000
vt 0.625000 0.500000
vt 0.625000 0.500000
vt 0.726244 0.625000
vt 0.625000 0.625000
vt 0.625000 0.500000
vt 0.625000 0.500000
vt 0.625000 0.500000
vt 0.625000 0.500000
vt 0.625000 0.500000
vt 0.625000 0.500000
vt 0.625000 0.500000
vt 0.377604 0.380057
vt 0.377604 0.497860
vt 0.377604 0.497860
vt 0.377604 0.497860
vt 0.375000 0.497396
vt 0.375000 0.500000
vt 0.377604 0.500000
vt 0.625000 0.500000
vt 0.375000 0.497396
vt 0.625000 0.500000
vt 0.377604 0.500000
vt 0.375000 0.500000
vt 0.377604 0.497860
vt 0.250000 0.500000
vt 0.372396 0.500000
vt 0.375000 0.375000
vt 0.375000 0.497396
vt 0.250000 0.500000
vt 0.372396 0.500000
vt 0.377604 0.380057
vt 0.375000 0.375000
vt 0.625000 0.497396
vt 0.625000 0.500000
vt 0.625000 0.500000
vt 0.625000 0.500000
vt 0.625000 0.500000
vt 0.625000 0.497396
vt 0.372396 0.500000
vt 0.372396 0.500000
vt 0.372396 0.500000
vt 0.372396 0.500000
vt 0.625000 0.398756
vt 0.625000 0.398756
vt 0.500000 0.398756
vt 0.500000 0.398756
vt 0.377604 0.500000
vt 0.377604 0.500000
vt 0.500000 0.500000
vt 0.500000 0.500000
vt 0.726244 0.500000
vt 0.726244 0.500000
vt 0.726244 0.625000
vt 0.726244 0.625000
vt 0.500000 0.500000
vt 0.625000 0.500000
vt 0.625000 0.500000
vt 0.500000 0.500000
vt 0.500000 0.398756
vt 0.500000 0.497396
vt 0.726244 0.625000
vt 0.726244 0.625000
vt 0.377604 0.497860
vt 0.375000 0.497396
vt 0.372396 0.500000
vt 0.372396 0.500000
vt 0.500000 0.500000
vt 0.377604 0.500000
vt 0.372396 0.500000
vt 0.372396 0.500000
vt 0.377604 0.500000
vt 0.377604 0.500000
vt 0.625000 0.500000
vt 0.625000 0.500000
vt 0.500000 0.500000
vt 0.377604 0.500000
vt 0.377604 0.500000
vt 0.500000 0.500000
vt 0.500000 0.500000
vt 0.625000 0.497396
vt 0.500000 0.497396
vt 0.625000 0.500000
vt 0.625000 0.500000
vt 0.625000 0.500000
vt 0.625000 0.625000
vt 0.500000 0.398756
vt 0.500000 0.497396
vt 0.625000 0.625000
vt 0.625000 0.625000
vt 0.377604 0.500000
vt 0.500000 0.497396
vt 0.625000 0.497396
vt 0.625000 0.500000
vt 0.625000 0.500000
vt 0.625000 0.625000
vt 0.625000 0.500000
vt 0.625000 0.500000
vt 0.625000 0.500000
vt 0.625000 0.500000
vt 0.625000 0.500000
vt 0.625000 0.500000
vt 0.625000 0.500000
vt 0.377604 0.497860
vt 0.377604 0.497860
vt 0.377604 0.500000
vt 0.375000 0.500000
vt 0.625000 0.500000
vt 0.375000 0.497396
vt 0.625000 0.500000
vt 0.375000 0.500000
vt 0.377604 0.500000
vt 0.377604 0.497860
vt 0.372396 0.500000
vt 0.375000 0.497396
vt 0.372396 0.500000
vn -0.0000 0.1060 -0.9944
vn 0.0026 -0.9995 -0.0325
vn -0.0026 -0.9995 -0.0325
vn -0.9990 -0.0016 -0.0455
vn 0.9665 -0.0309 -0.2549
vn 0.0019 -0.0007 -1.0000
vn 0.0026 -0.9995 0.0325
vn 0.0032 -1.0000 0.0000
vn -1.0000 -0.0031 0.0000
vn 0.0000 -0.0084 1.0000
vn 0.9990 -0.0016 -0.0455
vn -0.9665 -0.0309 0.2549
vn 0.9990 -0.0016 0.0455
vn 0.0019 -0.0007 1.0000
vn -0.9665 -0.0309 -0.2549
vn -0.0000 -0.7712 0.6365
vn -0.0019 -0.0007 -1.0000
vn 0.0000 -0.7712 -0.6365
vn -0.9990 -0.0016 0.0455
vn -0.0019 -0.0007 1.0000
vn -0.0026 -0.9995 0.0325
vn 0.0000 0.1060 0.9944
vn 0.9665 -0.0309 0.2549
vn -0.9994 -0.0335 -0.0000
vn -0.5649 -0.8251 -0.0000
vn 0.9994 -0.0335 0.0000
vn 1.0000 -0.0031 0.0000
vn 0.5649 -0.8251 0.0000
vn 0.0000 -0.0033 1.0000
vn -0.0032 -1.0000 0.0000
vn -0.5774 -0.5774 -0.5774
vn -0.3991 -0.4734 -0.7853
vn 0.5774 -0.5774 -0.5774
vn 0.3991 -0.4733 -0.7853
vn -0.5774 -0.5774 0.5774
vn -0.3991 -0.4734 0.7853
vn 0.5774 -0.5774 0.5774
vn 0.3991 -0.4734 0.7853
vn -0.5422 -0.0079 -0.8402
vn -0.6905 -0.0030 -0.7233
vn 0.6905 -0.0030 -0.7233
vn 0.0027 -0.7071 -0.7071
vn 0.5422 -0.0079 -0.8402
vn 0.7067 -0.7067 -0.0334
vn -0.7067 -0.7067 -0.0334
vn 0.6905 -0.0030 0.7233
vn 0.0027 -0.7071 0.7071
vn -0.6905 -0.0030 0.7233
vn -0.5422 -0.0079 0.8402
vn -0.7067 -0.7067 0.0334
vn 0.7067 -0.7067 0.0334
vn -0.0027 -0.7071 0.7071
vn -0.0027 -0.7071 -0.7071
vn 0.5422 -0.0079 0.8402
vn 0.7071 -0.7071 0.0000
vn -0.7071 -0.7071 0.0000
vn 0.0000 -0.0033 -1.0000
vn 0.0000 1.0000 -0.0000
vn 0.0000 0.0000 -1.0000
vn 1.0000 0.0000 0.0000
vn 0.0000 0.7687 -0.6396
vn -0.9708 0.0326 0.2377
vn 0.0000 0.0000 1.0000
vn -0.0000 0.7687 0.6396
vn 0.0000 0.7071 0.7071
vn -1.0000 0.0000 0.0000
vn 0.9708 0.0326 -0.2377
vn 0.9708 0.0326 0.2377
vn 0.0000 -0.0084 -1.0000
vn -0.9708 0.0326 -0.2377
vn 0.9994 0.0357 0.0000
vn 0.5736 0.8192 0.0000
vn -0.9994 0.0357 -0.0000
vn -0.5736 0.8192 -0.0000
vn 0.5773 0.5774 0.5773
vn 0.3810 0.3739 0.8456
vn -0.5774 0.5774 0.5774
vn -0.3810 0.3739 0.8456
vn 0.5774 0.5774 -0.5773
vn 0.3810 0.3739 -0.8456
vn -0.5774 0.5773 -0.5773
vn -0.3810 0.3739 -0.8456
vn 0.5076 0.0074 0.8615
vn 0.7071 0.0000 0.7071
vn -0.7071 0.0000 0.7071
vn 0.0000 0.7071 -0.7071
vn -0.5076 0.0074 0.8615
vn -0.7071 0.7071 0.0000
vn 0.7071 0.7071 0.0000
vn -0.7071 0.0000 -0.7071
vn 0.7071 0.0000 -0.7071
vn 0.5076 0.0074 -0.8615
vn -0.5076 0.0074 -0.8615
vn -0.0178 0.0875 0.9960
vn -0.0000 0.6396 -0.7687
vn -0.0178 0.0875 -0.9960
vn -0.0000 0.6396 0.7687
vn 0.0178 0.0875 -0.9960
vn 0.0178 0.0875 0.9960
vn -0.8192 0.5736 -0.0000
vn 0.8192 0.5736 0.0000
vn -0.3462 0.9367 0.0520
vn 0.3462 0.9367 0.0520
vn -0.3462 0.9367 -0.0520
vn 0.3462 0.9367 -0.0520
vn -0.1372 0.9508 -0.2778
vn -0.9914 0.1212 0.0494
vn 0.1372 0.9508 -0.2778
vn 0.9914 0.1212 0.0494
vn -0.1372 0.9508 0.2778
vn -0.9914 0.1212 -0.0494
vn 0.9914 0.1212 -0.0494
vn 0.1371 0.9508 0.2778
vn 0.0000 0.1192 0.9929
vn 0.0000 0.1192 -0.9929
usemtl Cardboard
s off
f 1/1/1 11/2/1 10/3/1 50/4/1 49/5/1
f 3/6/1 42/7/1 44/8/1 18/9/1 25/10/1
f 19/11/2 52/12/2 46/13/2 58/14/2
f 19/11/3 68/15/3 40/16/3 52/12/3
f 69/17/4 34/18/4 56/19/4 41/20/4
f 21/21/5 54/22/5 48/23/5 17/24/5
f 2/25/6 1/1/6 49/5/6 53/26/6
f 24/27/7 79/28/7 67/29/7 74/30/7
f 79/28/8 24/27/8 19/11/8 58/14/8
f 37/31/9 34/18/9 69/17/9 81/32/9
f 83/33/10 93/34/10 105/35/10 85/36/10
f 57/37/11 45/38/11 54/22/11 21/21/11
f 37/31/12 78/39/12 62/40/12 35/41/12
f 80/42/13 26/43/13 75/44/13 65/45/13
f 6/46/14 76/47/14 70/48/14 5/49/14
f 34/18/15 32/50/15 43/51/15 56/19/15
f 9/52/16 15/53/16 16/54/16 13/55/16
f 4/56/17 55/57/17 42/7/17 3/6/17
f 10/3/18 11/2/18 14/58/18 12/59/18
f 18/9/18 29/60/18 30/61/18 25/10/18
f 81/32/19 60/62/19 78/39/19 37/31/19
f 8/63/20 7/64/20 63/65/20 77/66/20
f 24/27/21 74/30/21 61/67/21 82/68/21
f 7/64/22 28/69/22 22/70/22 64/71/22 63/65/22
f 22/70/16 28/69/16 33/72/16 31/73/16
f 26/43/23 20/74/23 71/75/23 75/44/23
f 35/41/24 32/50/24 34/18/24 37/31/24
f 32/50/25 35/41/25 38/76/25 36/77/25
f 20/74/26 26/43/26 21/21/26 17/24/26
f 5/49/22 70/48/22 72/78/22 9/52/22 13/55/22
f 26/43/27 80/42/27 57/37/27 21/21/27
f 23/79/28 27/80/28 20/74/28 17/24/28
f 73/81/29 66/82/29 76/47/29 6/46/29 8/63/29 77/66/29 59/83/29
f 82/68/30 68/15/30 19/11/30 24/27/30
f 39/84/31 40/85/31 41/20/31
f 42/7/32 43/51/32 44/8/32
f 45/38/33 46/86/33 47/87/33
f 48/23/34 49/88/34 50/4/34
f 59/83/35 60/62/35 61/89/35
f 62/40/36 63/90/36 64/71/36
f 65/45/37 66/91/37 67/92/37
f 70/48/38 71/75/38 72/78/38
f 42/7/39 55/57/39 56/19/39 43/51/39
f 55/57/40 39/84/40 41/20/40 56/19/40
f 54/22/41 45/38/41 47/93/41 53/26/41
f 46/13/42 52/12/42 51/94/42 47/95/42
f 48/23/43 54/22/43 53/26/43 49/5/43
f 45/38/44 57/37/44 58/14/44 46/13/44
f 40/16/45 68/15/45 69/17/45 41/20/45
f 76/47/46 66/82/46 65/45/46 75/44/46
f 66/82/47 73/81/47 74/96/47 67/97/47
f 78/39/48 60/62/48 59/83/48 77/66/48
f 62/40/49 78/39/49 77/66/49 63/65/49
f 60/62/50 81/32/50 82/68/50 61/67/50
f 67/29/51 79/28/51 80/42/51 65/45/51
f 61/67/52 74/30/52 73/98/52 59/99/52
f 39/84/53 51/100/53 52/101/53 40/85/53
f 70/48/54 76/47/54 75/44/54 71/75/54
f 57/37/55 80/42/55 79/28/55 58/14/55
f 68/15/56 82/68/56 81/32/56 69/17/56
f 2/25/57 53/26/57 47/93/57 51/100/57 39/84/57 55/57/57 4/56/57
f 83/33/10 129/102/10 130/103/10 92/104/10 93/34/10
f 85/36/10 105/35/10 100/105/10 124/106/10 122/107/10
f 155/108/58 158/109/58 139/110/58 145/111/58
f 89/112/59 87/113/59 88/114/59 90/115/59
f 147/116/60 121/117/60 134/118/60 114/119/60
f 95/120/61 108/121/61 113/122/61 98/123/61
f 102/124/62 99/125/62 128/126/62 132/127/62
f 84/128/63 131/129/63 129/102/63 83/33/63
f 93/34/64 96/130/64 110/131/64 105/35/64
f 119/132/65 120/133/65 126/134/65 127/135/65
f 117/136/60 157/137/60 147/116/60 114/119/60
f 158/109/58 155/108/58 136/138/58 146/139/58
f 135/140/66 102/124/66 132/127/66 125/141/66
f 117/136/67 115/142/67 140/143/67 154/144/67
f 156/145/66 143/146/66 151/147/66 106/148/66
f 88/114/59 87/113/59 148/149/59 152/150/59
f 114/119/68 134/118/68 123/151/68 112/152/68
f 91/153/61 95/120/61 98/123/61 97/154/61
f 86/155/63 85/36/63 122/107/63 133/156/63
f 85/36/63 86/155/63 84/128/63 83/33/63
f 92/104/64 94/157/64 96/130/64 93/34/64
f 100/105/64 105/35/64 110/131/64 109/158/64
f 87/113/69 89/112/69 108/121/69 95/120/69
f 157/137/60 117/136/60 154/144/60 138/159/60
f 90/115/59 153/160/59 141/161/59 89/112/59
f 89/112/69 141/161/69 142/162/69 103/163/69 108/121/69
f 103/163/61 111/164/61 113/122/61 108/121/61
f 106/148/70 151/147/70 149/165/70 101/166/70
f 115/142/71 117/136/71 114/119/71 112/152/71
f 112/152/72 116/167/72 118/168/72 115/142/72
f 101/166/73 99/125/73 102/124/73 106/148/73
f 87/113/69 95/120/69 91/153/69 150/169/69 148/149/69
f 106/148/66 102/124/66 135/140/66 156/145/66
f 104/170/74 99/125/74 101/166/74 107/171/74
f 144/172/59 137/173/59 153/160/59 90/115/59 88/114/59 152/150/59
f 119/132/75 121/117/75 120/133/75
f 122/107/76 124/106/76 123/151/76
f 125/141/77 127/174/77 126/175/77
f 128/126/78 130/103/78 129/176/78
f 137/173/79 139/177/79 138/159/79
f 140/143/80 142/162/80 141/178/80
f 143/146/81 145/179/81 144/180/81
f 148/149/82 150/169/82 149/165/82
f 122/107/83 123/151/83 134/118/83 133/156/83
f 133/156/84 134/118/84 121/117/84 119/132/84
f 132/127/85 131/129/85 127/181/85 125/141/85
f 139/110/86 137/182/86 144/172/86 145/183/86
f 128/126/87 129/102/87 131/129/87 132/127/87
f 125/141/88 126/134/88 136/138/88 135/140/88
f 120/184/89 121/117/89 147/116/89 146/139/89
f 152/150/90 151/147/90 143/146/90 144/172/90
f 126/134/58 120/184/58 146/139/58 136/138/58
f 154/144/91 153/160/91 137/173/91 138/159/91
f 140/143/92 141/161/92 153/160/92 154/144/92
f 138/159/89 139/110/89 158/109/89 157/137/89
f 145/111/88 143/146/88 156/145/88 155/108/88
f 148/149/93 149/165/93 151/147/93 152/150/93
f 135/140/88 136/138/88 155/108/88 156/145/88
f 146/139/89 147/116/89 157/137/89 158/109/89
f 84/128/63 86/155/63 133/156/63 119/132/63 127/181/63 131/129/63
f 38/76/94 35/41/94 115/142/94 118/168/94
f 30/61/95 29/60/95 109/158/95 110/131/95
f 32/50/96 36/77/96 116/167/96 112/152/96
f 16/54/97 15/53/97 97/154/97 98/123/97
f 12/59/95 14/58/95 96/130/95 94/157/95
f 10/3/60 12/59/60 94/157/60 92/104/60
f 23/79/98 17/24/98 99/125/98 104/170/98
f 15/53/60 9/52/60 91/153/60 97/154/60
f 20/74/99 27/80/99 107/171/99 101/166/99
f 31/73/97 33/72/97 113/122/97 111/164/97
f 22/70/66 31/73/66 111/164/66 103/163/66
f 29/60/66 18/9/66 100/105/66 109/158/66
f 36/77/100 38/76/100 118/168/100 116/167/100
f 27/80/101 23/79/101 104/170/101 107/171/101
f 44/8/102 43/51/102 123/151/102 124/106/102
f 48/23/103 50/4/103 130/103/103 128/126/103
f 62/40/104 64/71/104 142/162/104 140/143/104
f 72/78/105 71/75/105 149/165/105 150/169/105
f 43/51/106 32/50/106 112/152/106 123/151/106
f 18/9/107 44/8/107 124/106/107 100/105/107
f 17/24/108 48/23/108 128/126/108 99/125/108
f 50/4/109 10/3/109 92/104/109 130/103/109
f 35/41/110 62/40/110 140/143/110 115/142/110
f 64/71/111 22/70/111 103/163/111 142/162/111
f 9/52/112 72/78/112 150/169/112 91/153/112
f 71/75/113 20/74/113 101/166/113 149/165/113
usemtl CardboardTape
f 7/64/63 8/63/63 6/46/63 5/49/63
f 16/54/16 33/72/16 28/69/16 13/55/16
f 14/58/18 11/2/18 25/10/18 30/61/18
f 3/6/59 1/1/59 2/25/59 4/56/59
f 13/55/114 28/69/114 7/64/114 5/49/114
f 14/58/95 30/61/95 110/131/95 96/130/95
f 33/72/97 16/54/97 98/123/97 113/122/97
f 11/2/115 1/1/115 3/6/115 25/10/115
o BlueSticker.012_Plane.008
v 0.158811 0.257401 -0.284001
v 0.063965 0.220628 -0.239445
v 0.121729 0.295908 -0.330658
v 0.026882 0.259135 -0.286102
v 0.135420 0.281690 -0.313431
v 0.040574 0.244917 -0.268875
v 0.128394 0.281506 -0.313207
v 0.044039 0.248800 -0.273580
v 0.034518 0.258688 -0.285560
v 0.118872 0.291393 -0.325187
v 0.150465 0.258586 -0.285437
v 0.066110 0.225881 -0.245810
v 0.048312 0.244364 -0.268204
v 0.132666 0.277069 -0.307831
vt 0.660644 0.043323
vt 0.660644 0.737964
vt 0.532328 0.737964
vt 0.532327 0.043323
vt 0.958097 0.043323
vt 0.958097 0.737964
vt 0.718226 0.737964
vt 0.718226 0.043322
vt 0.684647 0.000125
vt 0.684647 0.781161
vt 0.500125 0.781161
vt 0.500125 0.000125
vt 0.999875 0.000125
vt 0.999875 0.781161
vn 0.0000 -0.7712 -0.6365
vn 0.0000 -0.7713 -0.6365
usemtl BlueSticker
s off
f 165/185/116 166/186/116 167/187/116 168/188/116
f 169/189/116 170/190/116 171/191/116 172/192/116
f 163/193/117 164/194/117 166/186/117 165/185/117
f 164/194/117 162/195/117 167/187/117 166/186/117
f 162/195/116 161/196/116 168/188/116 167/187/116
f 161/196/117 163/193/117 165/185/117 168/188/117
f 159/197/117 160/198/117 170/190/117 169/189/117
f 160/198/116 164/194/116 171/191/116 170/190/116
f 164/194/117 163/193/117 172/192/117 171/191/117
f 163/193/117 159/197/117 169/189/117 172/192/117
o sign2.018_sign2.012
v 0.198039 0.163667 0.137331
v 0.197084 0.135212 0.029398
v 0.194422 0.055855 0.165818
v 0.193467 0.027400 0.057884
vt 0.999900 0.999900
vt 0.999900 0.000100
vt 0.000100 0.000100
vt 0.000100 0.999900
vn 0.9994 -0.0335 0.0000
usemtl sign2
s off
f 173/199/118 175/200/118 176/201/118 174/202/118
o sign4.013_sign4.009
v 0.196979 0.132090 0.017554
v 0.196025 0.103636 -0.090379
v 0.193363 0.024278 0.046041
v 0.192527 -0.005155 -0.061892
vt 0.999900 0.999900
vt 0.999900 0.000100
vt 0.000100 0.000100
vt 0.000100 0.999900
vn 0.9995 -0.0327 0.0005
usemtl sign4
s off
f 177/203/119 179/204/119 180/205/119 178/206/119
