# Blender v2.82 (sub 7) OBJ File: 'buildingPack.blend'
# www.blender.org
mtllib Cardboard.014.mtl
o Cardboard.014_Cube.021
v -0.034714 0.098871 0.292660
v -0.034714 -0.084007 0.292663
v 0.034715 0.098871 0.292660
v 0.034715 -0.084007 0.292663
v -0.034715 0.098871 -0.292660
v -0.034715 -0.084007 -0.292662
v 0.034715 0.098871 -0.292660
v 0.034715 -0.084007 -0.292662
v -0.182662 0.104729 -0.292119
v -0.182662 0.104729 0.292119
v -0.034714 0.104729 0.292119
v -0.182662 0.272405 0.371481
v -0.034714 0.104729 -0.292119
v -0.034714 0.272405 0.371481
v -0.182662 0.272405 -0.371481
v -0.034715 0.272405 -0.371481
v 0.182663 0.104729 0.292119
v 0.000000 -0.276669 0.267040
v -0.192662 -0.084050 0.267072
v 0.182663 0.104729 -0.292119
v -0.052388 0.118367 0.269057
v 0.000000 -0.276669 -0.267040
v 0.034715 0.104729 0.292119
v -0.192662 -0.084050 -0.267071
v -0.052388 0.118367 -0.269057
v 0.034715 0.104729 -0.292119
v 0.182663 0.272405 0.371481
v 0.034715 0.272405 0.371481
v 0.182663 0.272405 -0.371481
v 0.034715 0.272405 -0.371481
v 0.192662 -0.084050 0.267072
v 0.052389 0.118367 0.269057
v 0.192662 -0.084050 -0.267071
v 0.052389 0.118367 -0.269057
v 0.181078 -0.265085 0.291418
v 0.181078 -0.275425 0.281078
v 0.191418 -0.265085 0.281078
v 0.180014 0.098008 0.292360
v 0.192631 0.095995 0.282959
v 0.184253 0.102482 0.292250
v -0.191418 -0.265085 0.281078
v -0.181078 -0.275425 0.281078
v -0.181078 -0.265085 0.291418
v -0.192631 0.095995 0.282960
v -0.180012 0.098008 0.292360
v -0.184252 0.102482 0.292250
v 0.000000 -0.265496 0.291901
v 0.000000 -0.275908 0.281489
v -0.181309 -0.084015 0.291973
v -0.191811 -0.084038 0.281698
v 0.181310 -0.084015 0.291973
v 0.191812 -0.084038 0.281698
v -0.191901 -0.265496 0.267040
v -0.181489 -0.275908 0.267040
v 0.181078 -0.265085 -0.291418
v 0.191418 -0.265085 -0.281078
v 0.181078 -0.275425 -0.281078
v 0.192631 0.095996 -0.282959
v 0.180014 0.098008 -0.292360
v 0.184252 0.102482 -0.292250
v -0.191418 -0.265085 -0.281078
v -0.181078 -0.265085 -0.291418
v -0.181078 -0.275425 -0.281078
v 0.181490 -0.275908 0.267040
v 0.191901 -0.265496 0.267040
v -0.180013 0.098008 -0.292360
v -0.192631 0.095995 -0.282959
v -0.184252 0.102482 -0.292250
v 0.000000 -0.265496 -0.291901
v 0.000000 -0.275908 -0.281489
v -0.191812 -0.084038 -0.281697
v -0.181309 -0.084015 -0.291973
v 0.181310 -0.084015 -0.291973
v 0.191812 -0.084038 -0.281697
v -0.181489 -0.275908 -0.267040
v -0.191901 -0.265496 -0.267040
v 0.191901 -0.265496 -0.267040
v 0.181489 -0.275908 -0.267040
v -0.184558 0.105506 0.275031
v -0.193884 0.094262 0.276234
v -0.191251 0.102160 0.277790
v -0.193884 0.094262 -0.276234
v -0.184558 0.105506 -0.275031
v -0.191251 0.102160 -0.277789
v 0.193884 0.094262 0.276234
v 0.184559 0.105506 0.275031
v 0.191251 0.102160 0.277790
v 0.184559 0.105506 -0.275031
v 0.193884 0.094262 -0.276234
v 0.191251 0.102160 -0.277789
v -0.034714 0.098656 0.282663
v -0.034714 -0.084007 0.282663
v 0.034715 0.098656 0.282663
v 0.034715 -0.084007 0.282663
v -0.034715 0.098656 -0.282662
v -0.034715 -0.084007 -0.282662
v 0.034715 0.098656 -0.282662
v 0.034715 -0.084007 -0.282662
v -0.182662 0.106703 -0.282316
v -0.182662 0.106703 0.282316
v -0.034714 0.106703 0.282316
v -0.182662 0.276669 0.362436
v -0.034714 0.106703 -0.282316
v -0.034714 0.276669 0.362436
v -0.182662 0.276669 -0.362436
v -0.034715 0.276669 -0.362436
v 0.182663 0.106703 0.282316
v -0.182662 -0.084007 0.267040
v 0.182663 0.106703 -0.282316
v -0.051517 0.108405 0.269057
v 0.034715 0.106703 0.282316
v -0.182662 -0.084007 -0.267040
v -0.051517 0.108405 -0.269057
v 0.034715 0.106703 -0.282316
v 0.182663 0.276669 0.362436
v 0.034715 0.276669 0.362436
v 0.182663 0.276669 -0.362436
v 0.034715 0.276669 -0.362436
v 0.182663 -0.084007 0.267040
v 0.051517 0.108405 0.269057
v 0.182663 -0.084007 -0.267040
v 0.051517 0.108405 -0.269057
v 0.177663 -0.261669 0.282662
v 0.177663 -0.266669 0.277662
v 0.182663 -0.261669 0.277662
v 0.177663 0.098656 0.282662
v 0.184083 0.097004 0.277868
v 0.182663 0.103651 0.282447
v -0.182662 -0.261669 0.277663
v -0.177662 -0.266669 0.277663
v -0.177662 -0.261669 0.282663
v -0.184083 0.097004 0.277869
v -0.177662 0.098656 0.282663
v -0.182662 0.103651 0.282447
v -0.177662 -0.084007 0.282663
v -0.182662 -0.084007 0.277663
v 0.177663 -0.084007 0.282662
v 0.182663 -0.084007 0.277662
v -0.182662 -0.261669 0.267040
v -0.177662 -0.266669 0.267040
v 0.177663 -0.261669 -0.282662
v 0.182663 -0.261669 -0.277662
v 0.177663 -0.266669 -0.277662
v 0.184083 0.097004 -0.277868
v 0.177663 0.098656 -0.282662
v 0.182663 0.103651 -0.282447
v -0.182662 -0.261669 -0.277662
v -0.177662 -0.261669 -0.282662
v -0.177662 -0.266669 -0.277662
v 0.177663 -0.266669 0.267040
v 0.182663 -0.261669 0.267040
v -0.177662 0.098656 -0.282662
v -0.184083 0.097004 -0.277868
v -0.182662 0.103651 -0.282447
v -0.182662 -0.084007 -0.277662
v -0.177662 -0.084007 -0.282662
v 0.177663 -0.084007 -0.282662
v 0.182663 -0.084007 -0.277662
v -0.177662 -0.266669 -0.267040
v -0.182662 -0.261669 -0.267040
v 0.182663 -0.261669 -0.267040
v 0.177663 -0.266669 -0.267040
v -0.179285 0.097227 0.276942
v -0.184222 0.091791 0.276967
v -0.182917 0.098359 0.281802
v -0.184222 0.091791 -0.276967
v -0.179285 0.097227 -0.276942
v -0.182917 0.098359 -0.281801
v 0.184222 0.091791 0.276967
v 0.179286 0.097227 0.276942
v 0.182918 0.098359 0.281802
v 0.179286 0.097227 -0.276942
v 0.184222 0.091791 -0.276967
v 0.182918 0.098359 -0.281802
vt 0.625000 0.398756
vt 0.726244 0.500000
vt 0.625000 0.500000
vt 0.625000 0.500000
vt 0.625000 0.496578
vt 0.625000 0.398756
vt 0.625000 0.496578
vt 0.625000 0.500000
vt 0.625000 0.500000
vt 0.726244 0.500000
vt 0.250000 0.500000
vt 0.250000 0.500000
vt 0.371578 0.500000
vt 0.371578 0.500000
vt 0.371578 0.500000
vt 0.371578 0.500000
vt 0.378422 0.500000
vt 0.500000 0.500000
vt 0.500000 0.500000
vt 0.378422 0.500000
vt 0.625000 0.398756
vt 0.726244 0.500000
vt 0.726244 0.500000
vt 0.625000 0.398756
vt 0.500000 0.500000
vt 0.500000 0.500000
vt 0.625000 0.500000
vt 0.625000 0.500000
vt 0.621543 0.500000
vt 0.500000 0.398756
vt 0.500000 0.496578
vt 0.250000 0.500000
vt 0.371578 0.500000
vt 0.371578 0.500000
vt 0.250000 0.500000
vt 0.500000 0.500000
vt 0.378422 0.500000
vt 0.625000 0.398756
vt 0.625000 0.398756
vt 0.500000 0.398756
vt 0.500000 0.398756
vt 0.378422 0.500000
vt 0.378422 0.500000
vt 0.500000 0.500000
vt 0.625000 0.500000
vt 0.625000 0.500000
vt 0.621543 0.500000
vt 0.625000 0.500000
vt 0.625000 0.500000
vt 0.625000 0.500000
vt 0.625000 0.500000
vt 0.378422 0.500000
vt 0.500000 0.500000
vt 0.500000 0.500000
vt 0.378422 0.500000
vt 0.500000 0.398756
vt 0.500000 0.496578
vt 0.625000 0.496578
vt 0.625000 0.398756
vt 0.621543 0.500000
vt 0.625000 0.500000
vt 0.625000 0.500000
vt 0.625000 0.500000
vt 0.625000 0.625000
vt 0.726244 0.625000
vt 0.726244 0.500000
vt 0.500000 0.398756
vt 0.500000 0.496578
vt 0.726244 0.625000
vt 0.625000 0.625000
vt 0.625000 0.625000
vt 0.726244 0.625000
vt 0.378422 0.500000
vt 0.500000 0.398756
vt 0.625000 0.398756
vt 0.625000 0.496578
vt 0.500000 0.496578
vt 0.371578 0.500000
vt 0.371578 0.500000
vt 0.726244 0.500000
vt 0.625000 0.500000
vt 0.625000 0.500000
vt 0.726244 0.625000
vt 0.625000 0.625000
vt 0.621543 0.500000
vt 0.625000 0.500000
vt 0.625000 0.500000
vt 0.625000 0.500000
vt 0.625000 0.500000
vt 0.625000 0.500000
vt 0.625000 0.500000
vt 0.625000 0.500000
vt 0.378422 0.381582
vt 0.378422 0.497194
vt 0.378422 0.497194
vt 0.378422 0.497194
vt 0.375000 0.496578
vt 0.623870 0.500000
vt 0.375000 0.500000
vt 0.378422 0.500000
vt 0.625000 0.500000
vt 0.375000 0.496578
vt 0.625000 0.500000
vt 0.378422 0.500000
vt 0.375000 0.500000
vt 0.623870 0.500000
vt 0.625000 0.500000
vt 0.625000 0.500000
vt 0.378422 0.497194
vt 0.250000 0.500000
vt 0.371578 0.500000
vt 0.375000 0.375000
vt 0.375000 0.496578
vt 0.250000 0.500000
vt 0.371578 0.500000
vt 0.378422 0.381582
vt 0.375000 0.375000
vt 0.625000 0.496578
vt 0.625000 0.500000
vt 0.625000 0.500000
vt 0.625000 0.500000
vt 0.625000 0.500000
vt 0.625000 0.496578
vt 0.371578 0.500000
vt 0.371578 0.500000
vt 0.371578 0.500000
vt 0.371578 0.500000
vt 0.726244 0.625000
vt 0.726244 0.625000
vt 0.378422 0.500000
vt 0.378422 0.500000
vt 0.500000 0.500000
vt 0.500000 0.500000
vt 0.500000 0.500000
vt 0.621543 0.500000
vt 0.625000 0.500000
vt 0.625000 0.500000
vt 0.500000 0.500000
vt 0.500000 0.398756
vt 0.500000 0.496578
vt 0.726244 0.500000
vt 0.726244 0.500000
vt 0.726244 0.625000
vt 0.726244 0.625000
vt 0.378422 0.497194
vt 0.375000 0.496578
vt 0.371578 0.500000
vt 0.371578 0.500000
vt 0.500000 0.500000
vt 0.378422 0.500000
vt 0.378422 0.500000
vt 0.378422 0.500000
vt 0.621543 0.500000
vt 0.625000 0.500000
vt 0.625000 0.500000
vt 0.500000 0.500000
vt 0.625000 0.500000
vt 0.625000 0.500000
vt 0.625000 0.500000
vt 0.625000 0.500000
vt 0.378422 0.500000
vt 0.378422 0.500000
vt 0.500000 0.500000
vt 0.500000 0.500000
vt 0.625000 0.496578
vt 0.500000 0.496578
vt 0.625000 0.500000
vt 0.625000 0.500000
vt 0.621543 0.500000
vt 0.625000 0.500000
vt 0.625000 0.625000
vt 0.500000 0.398756
vt 0.500000 0.496578
vt 0.625000 0.625000
vt 0.625000 0.625000
vt 0.378422 0.500000
vt 0.500000 0.496578
vt 0.625000 0.496578
vt 0.625000 0.500000
vt 0.625000 0.500000
vt 0.625000 0.625000
vt 0.625000 0.500000
vt 0.625000 0.500000
vt 0.621543 0.500000
vt 0.625000 0.500000
vt 0.625000 0.500000
vt 0.625000 0.500000
vt 0.625000 0.500000
vt 0.625000 0.500000
vt 0.378422 0.497194
vt 0.378422 0.497194
vt 0.623870 0.500000
vt 0.378422 0.500000
vt 0.375000 0.500000
vt 0.625000 0.500000
vt 0.375000 0.496578
vt 0.625000 0.500000
vt 0.375000 0.500000
vt 0.378422 0.500000
vt 0.623870 0.500000
vt 0.625000 0.500000
vt 0.625000 0.500000
vt 0.378422 0.497194
vt 0.371578 0.500000
vt 0.375000 0.496578
vt 0.371578 0.500000
vt 0.371578 0.500000
vt 0.371578 0.500000
vn -0.0010 0.0617 0.9981
vn 0.0010 0.0617 0.9981
vn -0.0035 -0.9990 0.0437
vn 0.0035 -0.9990 0.0437
vn 0.9989 -0.0033 0.0465
vn 0.0000 -0.0431 -0.9991
vn -0.9951 -0.0044 0.0988
vn -0.0034 -0.0010 1.0000
vn -0.0035 -0.9990 -0.0437
vn -0.0042 -1.0000 0.0000
vn 1.0000 -0.0042 -0.0000
vn 0.0000 0.0000 1.0000
vn -0.9989 -0.0033 0.0465
vn 0.9951 -0.0044 -0.0988
vn -0.0969 0.9953 0.0000
vn -0.9989 -0.0033 -0.0465
vn -0.0034 -0.0010 -1.0000
vn 0.9951 -0.0044 0.0988
vn -0.0000 -0.4278 -0.9039
vn 0.0034 -0.0010 1.0000
vn -0.0000 -0.4278 0.9039
vn 0.9989 -0.0033 -0.0465
vn 0.0034 -0.0010 -1.0000
vn 0.0035 -0.9990 -0.0437
vn 0.0010 0.0617 -0.9981
vn -0.9951 -0.0044 -0.0988
vn 1.0000 -0.0069 -0.0000
vn 0.0969 0.9953 0.0000
vn -0.0010 0.0616 -0.9981
vn -1.0000 -0.0042 0.0000
vn -1.0000 -0.0069 -0.0000
vn -0.0000 -0.0040 -1.0000
vn 0.0042 -1.0000 0.0000
vn 0.5774 -0.5774 0.5773
vn 0.4886 -0.4444 0.7508
vn -0.5774 -0.5774 0.5773
vn -0.4886 -0.4444 0.7509
vn 0.5774 -0.5774 -0.5773
vn 0.4886 -0.4444 -0.7508
vn -0.5774 -0.5774 -0.5773
vn -0.4886 -0.4445 -0.7508
vn -0.4944 0.3237 -0.8067
vn -0.4943 0.3237 0.8068
vn 0.4943 0.3237 -0.8068
vn 0.4943 0.3237 0.8068
vn 0.6480 -0.0026 0.7616
vn 0.7032 -0.0035 0.7110
vn -0.7032 -0.0035 0.7110
vn -0.0035 -0.7071 0.7071
vn -0.6480 -0.0026 0.7617
vn -0.7064 -0.7064 0.0450
vn 0.7064 -0.7064 0.0450
vn -0.7032 -0.0035 -0.7110
vn -0.0035 -0.7071 -0.7071
vn 0.7032 -0.0035 -0.7110
vn 0.6480 -0.0026 -0.7616
vn 0.7064 -0.7064 -0.0450
vn -0.7064 -0.7064 -0.0450
vn 0.0035 -0.7071 -0.7071
vn 0.0035 -0.7071 0.7071
vn -0.6480 -0.0026 -0.7616
vn -0.7697 0.6384 -0.0000
vn -0.7071 -0.7071 0.0000
vn 0.7071 -0.7071 -0.0000
vn 0.7697 0.6384 0.0000
vn 0.0000 -0.0040 1.0000
vn -0.0000 -0.0430 -0.9991
vn 0.0000 1.0000 0.0000
vn 0.0000 0.4264 -0.9045
vn -1.0000 0.0000 -0.0000
vn 0.9999 0.0086 -0.0133
vn 0.0000 0.0000 -1.0000
vn 0.0000 0.4264 0.9045
vn -0.0000 0.7071 -0.7071
vn 1.0000 0.0000 -0.0000
vn -0.9999 0.0086 0.0133
vn 0.0872 -0.9962 -0.0000
vn -0.9999 0.0086 -0.0133
vn 0.0000 -0.0430 0.9991
vn 0.9999 0.0086 0.0133
vn -1.0000 0.0089 0.0000
vn -0.0872 -0.9962 0.0000
vn 1.0000 0.0089 -0.0000
vn -0.5774 0.5774 -0.5774
vn -0.4654 0.4325 -0.7722
vn 0.5774 0.5774 -0.5774
vn 0.4653 0.4325 -0.7723
vn -0.5774 0.5774 0.5774
vn -0.4653 0.4325 0.7722
vn 0.5773 0.5774 0.5774
vn 0.4653 0.4325 0.7723
vn 0.6047 -0.5465 0.5793
vn 0.6047 -0.5465 -0.5793
vn -0.6047 -0.5465 0.5793
vn -0.6047 -0.5465 -0.5793
vn -0.6507 0.0030 -0.7593
vn -0.7071 0.0000 -0.7071
vn 0.7071 0.0000 -0.7071
vn 0.0000 0.7071 0.7071
vn 0.6507 0.0030 -0.7593
vn 0.7071 0.7071 -0.0000
vn -0.7071 0.7071 -0.0000
vn 0.7071 0.0000 0.7071
vn -0.7071 0.0000 0.7071
vn -0.6507 0.0030 0.7593
vn 0.6507 0.0030 0.7593
vn 0.7403 -0.6723 -0.0000
vn -0.7403 -0.6723 0.0000
vn 0.0000 0.9045 0.4264
vn -0.0000 0.9045 -0.4264
vn -0.9962 0.0871 0.0000
vn 0.9962 0.0871 -0.0000
vn 0.5918 0.7510 -0.2930
vn -0.5918 0.7510 -0.2930
vn 0.5918 0.7510 0.2930
vn -0.5918 0.7510 0.2930
vn 0.3295 0.6881 0.6465
vn 0.3295 0.6881 -0.6465
vn -0.3295 0.6881 0.6465
vn -0.3295 0.6881 -0.6465
vn -0.0852 0.1335 0.9874
vn 0.9578 0.2857 -0.0319
vn 0.0852 0.1336 0.9874
vn -0.9578 0.2857 -0.0319
vn -0.0852 0.1335 -0.9874
vn 0.9578 0.2857 0.0319
vn -0.9578 0.2857 0.0318
vn 0.0852 0.1335 -0.9874
vn 0.0420 0.1181 0.9921
vn 0.0420 0.1181 -0.9921
vn -0.0420 0.1181 0.9921
vn -0.0420 0.1181 -0.9921
vn -0.0000 0.0920 -0.9958
vn 0.0000 0.0920 0.9958
usemtl Cardboard
s off
f 1/1/1 11/2/1 10/3/1 46/4/1 45/5/1
f 3/6/2 38/7/2 40/8/2 17/9/2 23/10/2
f 18/11/3 48/12/3 42/13/3 54/14/3
f 18/11/4 64/15/4 36/16/4 48/12/4
f 65/17/5 31/18/5 52/19/5 37/20/5
f 91/21/6 101/22/6 111/23/6 93/24/6
f 19/25/7 50/26/7 44/27/7 81/28/7 80/29/7
f 2/30/8 1/1/8 45/5/8 49/31/8
f 22/32/9 75/33/9 63/34/9 70/35/9
f 75/33/10 22/32/10 18/11/10 54/14/10
f 33/36/11 31/18/11 65/17/11 77/37/11
f 97/38/12 95/39/12 96/40/12 98/41/12
f 53/42/13 41/43/13 50/26/13 19/25/13
f 33/36/14 74/44/14 58/45/14 90/46/14 89/47/14
f 21/48/15 25/49/15 83/50/15 79/51/15
f 76/52/16 24/53/16 71/54/16 61/55/16
f 6/56/17 72/57/17 66/58/17 5/59/17
f 31/18/18 85/60/18 87/61/18 39/62/18 52/19/18
f 9/63/19 15/64/19 16/65/19 13/66/19
f 4/67/20 51/68/20 38/7/20 3/6/20
f 10/3/21 11/2/21 14/69/21 12/70/21
f 17/9/21 27/71/21 28/72/21 23/10/21
f 77/37/22 56/73/22 74/44/22 33/36/22
f 8/74/23 7/75/23 59/76/23 73/77/23
f 22/32/24 70/35/24 57/78/24 78/79/24
f 7/75/25 26/80/25 20/81/25 60/82/25 59/76/25
f 20/81/19 26/80/19 30/83/19 29/84/19
f 24/53/26 82/85/26 84/86/26 67/87/26 71/54/26
f 89/47/27 85/60/27 31/18/27 33/36/27
f 86/88/28 88/89/28 34/90/28 32/91/28
f 5/59/29 66/58/29 68/92/29 9/63/29 13/66/29
f 24/53/30 76/52/30 53/42/30 19/25/30
f 82/85/31 24/53/31 19/25/31 80/29/31
f 69/93/32 62/94/32 72/57/32 6/56/32 8/74/32 73/77/32 55/95/32
f 78/79/33 64/15/33 18/11/33 22/32/33
f 35/96/34 36/97/34 37/20/34
f 38/7/35 39/98/35 40/8/35
f 41/43/36 42/99/36 43/100/36
f 44/27/37 45/101/37 46/4/37
f 55/95/38 56/73/38 57/102/38
f 58/45/39 59/103/39 60/82/39
f 61/55/40 62/104/40 63/105/40
f 66/58/41 67/106/41 68/92/41
f 79/51/42 80/107/42 81/28/42
f 82/85/43 83/50/43 84/86/43
f 85/60/44 86/88/44 87/61/44
f 88/89/45 89/108/45 90/46/45
f 38/7/46 51/68/46 52/19/46 39/62/46
f 51/68/47 35/96/47 37/20/47 52/19/47
f 50/26/48 41/43/48 43/109/48 49/31/48
f 42/13/49 48/12/49 47/110/49 43/111/49
f 44/27/50 50/26/50 49/31/50 45/5/50
f 41/43/51 53/42/51 54/14/51 42/13/51
f 36/16/52 64/15/52 65/17/52 37/20/52
f 72/57/53 62/94/53 61/55/53 71/54/53
f 62/94/54 69/93/54 70/112/54 63/113/54
f 74/44/55 56/73/55 55/95/55 73/77/55
f 58/45/56 74/44/56 73/77/56 59/76/56
f 56/73/57 77/37/57 78/79/57 57/78/57
f 63/34/58 75/33/58 76/52/58 61/55/58
f 57/78/59 70/35/59 69/114/59 55/115/59
f 35/96/60 47/116/60 48/117/60 36/97/60
f 66/58/61 72/57/61 71/54/61 67/87/61
f 82/85/62 80/29/62 79/51/62 83/50/62
f 53/42/63 76/52/63 75/33/63 54/14/63
f 64/15/64 78/79/64 77/37/64 65/17/64
f 88/89/65 86/88/65 85/60/65 89/47/65
f 2/30/66 49/31/66 43/109/66 47/116/66 35/96/66 51/68/66 4/67/66
f 91/21/6 133/118/6 134/119/6 100/120/6 101/22/6
f 93/24/67 111/23/67 107/121/67 128/122/67 126/123/67
f 159/124/68 162/125/68 143/126/68 149/127/68
f 101/22/69 104/128/69 116/129/69 111/23/69
f 151/130/70 125/131/70 138/132/70 119/133/70
f 108/134/71 164/135/71 165/136/71 132/137/71 136/138/71
f 92/139/72 135/140/72 133/118/72 91/21/72
f 103/141/73 114/142/73 118/143/73 106/144/73
f 123/145/74 124/146/74 130/147/74 131/148/74
f 121/149/70 161/150/70 151/130/70 119/133/70
f 139/151/75 108/134/75 136/138/75 129/152/75
f 121/149/76 173/153/76 174/154/76 144/155/76 158/156/76
f 110/157/77 163/158/77 167/159/77 113/160/77
f 160/161/75 147/162/75 155/163/75 112/164/75
f 96/40/12 95/39/12 152/165/12 156/166/12
f 119/133/78 138/132/78 127/167/78 171/168/78 169/169/78
f 99/170/73 103/141/73 106/144/73 105/171/73
f 94/172/72 93/24/72 126/123/72 137/173/72
f 93/24/72 94/172/72 92/139/72 91/21/72
f 100/120/69 102/174/69 104/128/69 101/22/69
f 107/121/69 111/23/69 116/129/69 115/175/69
f 95/39/79 97/38/79 114/142/79 103/141/79
f 161/150/70 121/149/70 158/156/70 142/176/70
f 98/41/12 157/177/12 145/178/12 97/38/12
f 97/38/79 145/178/79 146/179/79 109/180/79 114/142/79
f 109/180/73 117/181/73 118/143/73 114/142/73
f 112/164/80 155/163/80 153/182/80 168/183/80 166/184/80
f 173/153/81 121/149/81 119/133/81 169/169/81
f 170/185/82 120/186/82 122/187/82 172/188/82
f 95/39/79 103/141/79 99/170/79 154/189/79 152/165/79
f 112/164/75 108/134/75 139/151/75 160/161/75
f 166/184/83 164/135/83 108/134/83 112/164/83
f 148/190/12 141/191/12 157/177/12 98/41/12 96/40/12 156/166/12
f 123/145/84 125/131/84 124/146/84
f 126/123/85 128/122/85 127/192/85
f 129/152/86 131/193/86 130/194/86
f 132/137/87 134/119/87 133/195/87
f 141/191/88 143/196/88 142/176/88
f 144/155/89 146/179/89 145/197/89
f 147/162/90 149/198/90 148/199/90
f 152/165/91 154/189/91 153/200/91
f 163/158/92 165/136/92 164/201/92
f 166/184/93 168/183/93 167/159/93
f 169/169/94 171/168/94 170/185/94
f 172/188/95 174/154/95 173/202/95
f 126/123/96 127/167/96 138/132/96 137/173/96
f 137/173/97 138/132/97 125/131/97 123/145/97
f 136/138/98 135/140/98 131/203/98 129/152/98
f 143/126/99 141/204/99 148/190/99 149/205/99
f 132/137/100 133/118/100 135/140/100 136/138/100
f 129/152/101 130/147/101 140/206/101 139/151/101
f 124/207/102 125/131/102 151/130/102 150/208/102
f 156/166/103 155/163/103 147/162/103 148/190/103
f 130/147/68 124/207/68 150/208/68 140/206/68
f 158/156/104 157/177/104 141/191/104 142/176/104
f 144/155/105 145/178/105 157/177/105 158/156/105
f 142/176/102 143/126/102 162/125/102 161/150/102
f 149/127/101 147/162/101 160/161/101 159/124/101
f 152/165/106 153/182/106 155/163/106 156/166/106
f 166/184/107 167/159/107 163/158/107 164/135/107
f 139/151/101 140/206/101 159/124/101 160/161/101
f 150/208/102 151/130/102 161/150/102 162/125/102
f 172/188/108 173/153/108 169/169/108 170/185/108
f 92/139/72 94/172/72 137/173/72 123/145/72 131/203/72 135/140/72
f 162/125/68 159/124/68 140/206/68 150/208/68
f 28/72/109 27/71/109 115/175/109 116/129/109
f 16/65/110 15/64/110 105/171/110 106/144/110
f 12/70/109 14/69/109 104/128/109 102/174/109
f 10/3/70 12/70/70 102/174/70 100/120/70
f 15/64/70 9/63/70 99/170/70 105/171/70
f 29/84/110 30/83/110 118/143/110 117/181/110
f 20/81/75 29/84/75 117/181/75 109/180/75
f 27/71/75 17/9/75 107/121/75 115/175/75
f 32/91/111 34/90/111 122/187/111 120/186/111
f 25/49/112 21/48/112 110/157/112 113/160/112
f 40/8/113 39/98/113 127/192/113 128/122/113
f 44/27/114 46/4/114 134/119/114 132/137/114
f 58/45/115 60/82/115 146/179/115 144/155/115
f 68/92/116 67/106/116 153/200/116 154/189/116
f 79/51/117 81/28/117 165/136/117 163/158/117
f 84/86/118 83/50/118 167/159/118 168/183/118
f 87/61/119 86/88/119 170/185/119 171/168/119
f 88/89/120 90/46/120 174/154/120 172/188/120
f 39/62/121 87/61/121 171/168/121 127/167/121
f 17/9/122 40/8/122 128/122/122 107/121/122
f 81/28/123 44/27/123 132/137/123 165/136/123
f 46/4/124 10/3/124 100/120/124 134/119/124
f 90/46/125 58/45/125 144/155/125 174/154/125
f 60/82/126 20/81/126 109/180/126 146/179/126
f 9/63/127 68/92/127 154/189/127 99/170/127
f 67/87/128 84/86/128 168/183/128 153/182/128
f 21/48/129 79/51/129 163/158/129 110/157/129
f 83/50/130 25/49/130 113/160/130 167/159/130
f 86/88/131 32/91/131 120/186/131 170/185/131
f 34/90/132 88/89/132 172/188/132 122/187/132
usemtl CardboardTape
f 14/69/21 11/2/21 23/10/21 28/72/21
f 16/65/19 30/83/19 26/80/19 13/66/19
f 3/6/12 1/1/12 2/30/12 4/67/12
f 13/66/133 26/80/133 7/75/133 5/59/133
f 14/69/109 28/72/109 116/129/109 104/128/109
f 30/83/110 16/65/110 106/144/110 118/143/110
f 7/75/72 8/74/72 6/56/72 5/59/72
f 11/2/134 1/1/134 3/6/134 23/10/134
o sign4.008_sign4.004
v 0.031768 -0.025190 -0.295661
v -0.114928 -0.025092 -0.295408
v 0.031768 -0.171960 -0.294704
v -0.114926 -0.171961 -0.295015
vt 0.999900 0.999900
vt 0.999900 0.000100
vt 0.000100 0.000100
vt 0.000100 0.999900
vn 0.0002 -0.0046 -1.0000
usemtl sign4
s off
f 175/209/135 177/210/135 178/211/135 176/212/135
o BlueSticker.007_Plane.018
v 0.009543 0.137516 0.310956
v -0.160132 0.152343 0.317974
v 0.020079 0.235272 0.357225
v -0.149596 0.250099 0.364242
v 0.016189 0.199177 0.340141
v -0.153486 0.214005 0.347159
v 0.007311 0.204693 0.342751
v -0.143596 0.217880 0.348993
v -0.140891 0.242980 0.360873
v 0.010016 0.229793 0.354631
v 0.001039 0.146508 0.315212
v -0.149867 0.159695 0.321454
v -0.144810 0.206616 0.343662
v 0.006097 0.193429 0.337420
vt 0.660644 0.043323
vt 0.532327 0.043323
vt 0.532328 0.737964
vt 0.660644 0.737964
vt 0.958097 0.043323
vt 0.718226 0.043322
vt 0.718226 0.737964
vt 0.958097 0.737964
vt 0.684647 0.000125
vt 0.684647 0.781161
vt 0.500125 0.781161
vt 0.500125 0.000125
vt 0.999875 0.000125
vt 0.999875 0.781161
vn 0.0000 -0.4278 0.9039
usemtl BlueSticker
s off
f 185/213/136 188/214/136 187/215/136 186/216/136
f 189/217/136 192/218/136 191/219/136 190/220/136
f 183/221/136 185/213/136 186/216/136 184/222/136
f 184/222/136 186/216/136 187/215/136 182/223/136
f 182/223/136 187/215/136 188/214/136 181/224/136
f 181/224/136 188/214/136 185/213/136 183/221/136
f 179/225/136 189/217/136 190/220/136 180/226/136
f 180/226/136 190/220/136 191/219/136 184/222/136
f 184/222/136 191/219/136 192/218/136 183/221/136
f 183/221/136 192/218/136 189/217/136 179/225/136
o codeBArre.009_codeBArre.007
v -0.195361 -0.155742 0.200833
v -0.195361 -0.155742 0.026134
v -0.192709 -0.077116 0.200832
v -0.192709 -0.077116 0.026133
vt 0.000000 0.000000
vt 0.000000 1.000000
vt 1.000000 1.000000
vt 1.000000 0.000000
vn -0.9994 0.0337 0.0000
usemtl codeBArre
s off
f 193/227/137 195/228/137 196/229/137 194/230/137
